<svg width="50" height="50" xmlns="http://www.w3.org/2000/svg">
 <g id="Layer_1">
  <title>Layer 1</title>
  <ellipse ry="16.24973" rx="16.24973" id="svg_25" cy="21.24924" cx="20.25008" stroke="#7f3f00" fill="#ffffff"/>
  <ellipse ry="16.24973" rx="16.24973" id="svg_27" cy="25.74916" cx="28.24995" stroke="#7f3f00" fill="#7f3f00"/>
  <path id="svg_28" d="m48.37221,6.46021l-2.896,-1.76335c-0.73067,-0.44446 -1.69346,-0.23054 -2.15386,0.47745l-1.14148,1.76006l5.54018,3.37095l1.14238,-1.75925c0.45865,-0.70883 0.23975,-1.64239 -0.49122,-2.08586l0,0zm-16.05011,15.68031l5.54048,3.37092l9.03007,-13.92604l-5.54312,-3.3718l-9.02743,13.92691l0,0zm-0.84631,4.28288l-0.12237,3.16625l2.89156,-1.48166l2.68708,-1.37445l-5.34508,-3.25409l-0.11119,2.94395l0,0l0,0z" stroke="#7f3f00" fill="#ffffff"/>
 </g>
</svg>