<svg width="50" height="50" xmlns="http://www.w3.org/2000/svg">
 <g id="Layer_1">
  <title>Layer 1</title>
  <rect stroke-width="2" rx="5" id="svg_1" height="40" width="40" y="5" x="5" stroke="#3b5249" fill="#fff"/>
  <line stroke-width="2" fill="none" x1="5.75001" y1="38.62497" x2="44.74999" y2="38.74997" id="svg_10" stroke="#3b5249"/>
  <ellipse stroke-width="2" fill="#fff" cx="24.25" cy="38.74996" id="svg_11" rx="3.75" ry="3.75" stroke="#3b5249"/>
  <path stroke-width="2" fill="#fff" stroke="#3b5249" d="m37.00996,10.67722l-3.69889,-2.32486c-0.93324,-0.58599 -2.16295,-0.30395 -2.75099,0.62948l-1.45794,2.32052l7.07613,4.44436l1.45909,-2.31944c0.58581,-0.93455 0.30622,-2.16537 -0.6274,-2.75006l0,0zm-20.49982,20.67338l7.07652,4.44432l11.53355,-18.36049l-7.07989,-4.44548l-11.53018,18.36165l0,0zm-1.08094,5.64667l-0.15629,4.17447l3.69322,-1.95346l3.43205,-1.81211l-6.82694,-4.29029l-0.14202,3.88139l0,0l0,0l-0.00002,0z" id="svg_5"/>
 </g>

</svg>