<svg width="50" height="50" xmlns="http://www.w3.org/2000/svg">
 <g id="Layer_1">
  <title>Layer 1</title>
  <rect id="svg_15" height="45.74957" width="44.49959" y="1.87475" x="2.50021" stroke="#7f3f00" fill="#ffffff"/>
  <path id="svg_10" d="m25.68749,14.37463c-2.58975,0 -4.68746,-2.0977 -4.68746,-4.68746c0,-2.58975 2.0977,-4.68746 4.68746,-4.68746c2.58975,0 4.68746,2.0977 4.68746,4.68746c0,2.58975 -2.0977,4.68746 -4.68746,4.68746z" opacity="undefined" stroke="#7f3f00" fill="#ffffff"/>
  <path id="svg_11" d="m25.4375,27.37451c-2.58975,0 -4.68746,-2.0977 -4.68746,-4.68746c0,-2.58975 2.0977,-4.68746 4.68746,-4.68746c2.58975,0 4.68746,2.0977 4.68746,4.68746c0,2.58975 -2.0977,4.68746 -4.68746,4.68746z" opacity="undefined" stroke="#7f3f00" fill="#ffffff"/>
  <ellipse ry="4.68746" rx="4.68746" id="svg_12" cy="33.31196" cx="10.68763" stroke="#7f3f00" fill="#ffffff"/>
  <ellipse ry="4.68746" rx="4.68746" id="svg_13" cy="33.31196" cx="39.68736" stroke="#7f3f00" fill="#ffffff"/>
  <ellipse ry="4.68746" rx="4.68746" id="svg_14" cy="41.06189" cx="25.1875" stroke="#7f3f00" fill="#ffffff"/>
 </g>
</svg>