<svg width="50" height="50" xmlns="http://www.w3.org/2000/svg">
 <g id="Layer_1">
  <title>Layer 1</title>
  <ellipse stroke-width="2" fill="#fff" cx="25" cy="24.68733" id="svg_7" rx="19.81243" ry="19.81243" stroke="#3b5249"/>
  <path stroke-width="2" fill="#fff" stroke="#3b5249" d="m35.56567,12.82192l-3.24275,-2.03816c-0.81816,-0.51373 -1.89622,-0.26647 -2.41174,0.55186l-1.27815,2.03436l6.20352,3.89629l1.27916,-2.03341c0.51357,-0.8193 0.26846,-1.89835 -0.55003,-2.41093l0,0l-0.00001,-0.00001zm-17.97183,18.12398l6.20386,3.89625l10.11126,-16.09631l-6.20681,-3.89727l-10.10831,16.09733l0,0zm-0.94764,4.95033l-0.13702,3.65968l3.23778,-1.71256l3.00881,-1.58865l-5.98506,-3.76122l-0.12451,3.40275l0,0l0,0z" id="svg_14"/>
 </g>

</svg>