<svg width="50" height="50" xmlns="http://www.w3.org/2000/svg">
 <g id="Layer_1">
  <title>Layer 1</title>
  <path id="svg_17" d="m21.79738,23.687c-1.03109,-1.8626 -2.29256,-3.37056 -3.55789,-4.42545c-1.47645,1.08126 -3.27469,1.73967 -5.23512,1.73967c-1.96428,0 -3.76511,-0.65969 -5.23895,-1.73967c-1.26534,1.05488 -2.52809,2.56285 -3.56171,4.42545c-2.39939,4.32442 -2.66327,8.76017 -0.59086,9.9103c0.92811,0.5181 1.90122,0.13194 2.90655,-0.83671c-0.17635,0.98214 -0.27933,2.04666 -0.27933,3.16011c0,4.94679 1.92183,8.9539 4.29028,8.9539c1.42754,0 2.13422,-1.45908 2.47403,-3.69304c0.33856,2.23396 1.04523,3.69304 2.4676,3.69304c2.37234,0 4.29419,-4.00711 4.29419,-8.9539c0,-1.11346 -0.10302,-2.17797 -0.2832,-3.16011c1.00788,0.96864 1.97971,1.3548 2.9104,0.83671c2.07113,-1.15013 1.80336,-5.58588 -0.59597,-9.9103l0,0zm-8.79555,-4.37332c3.9852,0 7.2174,-3.23219 7.2174,-7.21935s-3.2322,-7.21936 -7.2174,-7.21936c-3.98655,0 -7.2213,3.23284 -7.2213,7.21936s3.23475,7.21935 7.2213,7.21935z" stroke="#7f3f00" fill="#ffffff"/>
  <path id="svg_18" d="m45.92215,24.31199c-1.03109,-1.86259 -2.29256,-3.37056 -3.5579,-4.42544c-1.47645,1.08126 -3.27469,1.73966 -5.23512,1.73966c-1.96428,0 -3.7651,-0.65969 -5.23895,-1.73966c-1.26534,1.05488 -2.52809,2.56285 -3.56171,4.42544c-2.3994,4.32442 -2.66327,8.76017 -0.59087,9.9103c0.92811,0.5181 1.90122,0.13194 2.90656,-0.83671c-0.17635,0.98215 -0.27934,2.04666 -0.27934,3.16012c0,4.94679 1.92183,8.9539 4.29028,8.9539c1.42755,0 2.13422,-1.45908 2.47403,-3.69304c0.33856,2.23396 1.04523,3.69304 2.4676,3.69304c2.37234,0 4.29419,-4.00711 4.29419,-8.9539c0,-1.11346 -0.10302,-2.17797 -0.2832,-3.16012c1.00788,0.96865 1.97971,1.35481 2.9104,0.83671c2.07113,-1.15013 1.80336,-5.58588 -0.59597,-9.9103l0,0zm-8.79555,-4.37331c3.98519,0 7.2174,-3.2322 7.2174,-7.21935s-3.23221,-7.21936 -7.2174,-7.21936c-3.98655,0 -7.22131,3.23284 -7.22131,7.21936s3.23476,7.21935 7.22131,7.21935z" stroke="#7f3f00" fill="#ffffff"/>
  <path id="svg_19" d="m13.89303,21.02606c0.00067,-0.22425 0.23028,-1.59918 0.51041,-3.05541c0.87351,-4.5408 0.88636,-4.56084 1.99541,-3.11358l0.65616,0.85626l1.91894,-0.84688c2.53815,-1.12015 5.56676,-1.53454 8.35075,-1.14256c1.18178,0.1664 2.43573,0.43685 2.78656,0.601c0.69654,0.3259 0.65189,0.60577 -0.45826,2.87255c-0.60845,1.24238 -0.66686,1.27779 -1.71789,1.04158c-1.78889,-0.40201 -4.70173,-0.27539 -6.10806,0.26553l-1.31857,0.50718l0.92554,0.84458c0.50905,0.46453 0.79742,0.91382 0.64083,0.99843c-0.1566,0.08461 -2.06181,0.24951 -4.23381,0.36644c-3.25873,0.17545 -3.9489,0.14135 -3.94801,-0.19511l0,0zm16.7799,12.51991l-1.41165,-1.63462l1.28532,-1.08661c1.32289,-1.11836 2.27697,-2.68852 2.6973,-4.43904l0.23987,-0.99895l-1.38349,0.1934c-0.76092,0.10639 -1.38817,0.09256 -1.39389,-0.0307c-0.02672,-0.5755 3.59105,-6.24864 3.9427,-6.18269c0.55292,0.10369 6.16261,4.35142 6.16261,4.66638c0,0.14058 -0.58956,0.33802 -1.31012,0.43875l-1.31012,0.18315l-0.1293,1.95319c-0.16584,2.50505 -1.6757,5.39621 -3.77785,7.23404c-0.84195,0.7361 -1.68133,1.33835 -1.86527,1.33835c-0.18395,0 -0.96969,-0.73559 -1.7461,-1.63464l0,0zm-12.74302,4.58172c0,-0.18074 0.22178,-0.70356 0.49284,-1.16183c0.49179,-0.83144 0.48895,-0.83548 -1.34449,-1.89975c-2.86855,-1.66513 -5.00074,-4.62063 -5.67141,-7.86134l-0.21987,-1.06244l1.5677,-0.18785c3.23164,-0.38725 3.26115,-0.37555 3.90836,1.55007c0.43674,1.2994 0.97389,2.07811 2.1318,3.09042c0.85136,0.74432 1.66689,1.28903 1.81228,1.21047c0.14539,-0.07856 0.35582,-0.54273 0.46764,-1.0315c0.11181,-0.48877 0.34497,-0.88869 0.51812,-0.88869c0.39754,0 4.14116,5.16052 4.20059,5.79045c0.03969,0.42072 -1.98401,1.14917 -7.25809,2.61262c-0.3363,0.09331 -0.60548,0.02192 -0.60548,-0.16061l0,0z" stroke="#7f3f00" fill="#ffffff"/>
 </g>
</svg>